<?xml version="1.0" encoding="UTF-8" standalone="no"?>
<!-- Created with Inkscape (http://www.inkscape.org/) -->

<svg
   width="49.078724mm"
   height="50.205563mm"
   viewBox="0 0 49.078725 50.205568"
   version="1.1"
   id="svg1"
   xml:space="preserve"
   inkscape:version="1.3 (0e150ed, 2023-07-21)"
   sodipodi:docname="logo-colour-knockout.svg"
   xmlns:inkscape="http://www.inkscape.org/namespaces/inkscape"
   xmlns:sodipodi="http://sodipodi.sourceforge.net/DTD/sodipodi-0.dtd"
   xmlns="http://www.w3.org/2000/svg"
   xmlns:svg="http://www.w3.org/2000/svg"><sodipodi:namedview
     id="namedview1"
     pagecolor="#46002a"
     bordercolor="#666666"
     borderopacity="1.0"
     inkscape:showpageshadow="2"
     inkscape:pageopacity="0.0"
     inkscape:pagecheckerboard="0"
     inkscape:deskcolor="#d1d1d1"
     inkscape:document-units="mm"
     showguides="true"
     inkscape:zoom="0.96049904"
     inkscape:cx="188.96427"
     inkscape:cy="112.96211"
     inkscape:window-width="1840"
     inkscape:window-height="1212"
     inkscape:window-x="0"
     inkscape:window-y="30"
     inkscape:window-maximized="0"
     inkscape:current-layer="layer1"><sodipodi:guide
       position="7.9852261,363.58708"
       orientation="0,-1"
       id="guide28"
       inkscape:locked="false" /><sodipodi:guide
       position="4.7019129,320.53547"
       orientation="0,-1"
       id="guide38"
       inkscape:locked="false" /><sodipodi:guide
       position="-25.583152,313.39589"
       orientation="0,-1"
       id="guide49"
       inkscape:locked="false" /></sodipodi:namedview><defs
     id="defs1" /><g
     inkscape:label="Layer 1"
     inkscape:groupmode="layer"
     id="layer1"
     transform="translate(-56.405675,-93.591566)"><g
       id="g56"
       style="stroke:#ffffff"><path
         style="fill:none;stroke:#ffffff;stroke-width:1;stroke-linecap:butt;stroke-linejoin:miter;stroke-dasharray:none;stroke-opacity:1"
         d="m 67.000449,103.46164 c 0,0 2.857035,-0.18259 4.511252,1.3966 1.674495,1.59855 2.008011,4.2082 1.416774,5.6472 -0.591238,1.439 -2.46746,3.68638 -4.215208,1.93864 -1.747747,-1.74775 0.662034,-3.73145 1.867401,-4.26503 1.205368,-0.53358 3.872822,-0.37902 5.612405,1.36056 1.636962,1.63697 2.008011,4.2082 1.416774,5.6472 -0.591238,1.439 -2.46746,3.68639 -4.215208,1.93864 -1.747747,-1.74775 0.662034,-3.73145 1.867401,-4.26503 1.205368,-0.53358 3.872822,-0.37902 5.612405,1.36057 1.636962,1.63696 2.008011,4.20819 1.416773,5.64719 -0.591237,1.439 -2.467459,3.68639 -4.215207,1.93864 -1.747747,-1.74775 0.662033,-3.73145 1.867401,-4.26503 1.205368,-0.53357 3.872821,-0.37902 5.612405,1.36057 1.636961,1.63696 2.008011,4.20819 1.416773,5.64719 -0.591237,1.43901 -2.467459,3.68639 -4.215207,1.93864 -1.747747,-1.74775 0.662033,-3.73144 1.867401,-4.26502 1.205367,-0.53358 3.872821,-0.37902 5.612406,1.36056 1.636963,1.63696 2.008012,4.20819 1.416775,5.6472 -0.591238,1.439 -2.46746,3.68638 -4.215208,1.93863 -1.747747,-1.74774 0.662034,-3.73144 1.867401,-4.26502 1.205368,-0.53358 3.872822,-0.37902 5.612405,1.36056 1.143033,1.14303 1.543021,2.93761 1.543021,2.93761"
         id="path49"
         sodipodi:nodetypes="cszzzcssscsscsssssssssc" /></g><path
       style="fill:none;stroke:#ffffff;stroke-width:1;stroke-linecap:butt;stroke-linejoin:miter;stroke-dasharray:none;stroke-opacity:1"
       d="m 65.109606,130.45385 -1.11994,-0.84851 c 0,0 -2.432077,-1.48661 -2.432076,-2.6972 1e-6,-1.21059 1.430293,-2.13499 2.432076,-2.69719 1.001783,-0.5622 2.16185,-1.54498 2.16185,-2.6972 0,-1.15222 -1.09251,-2.06744 -2.16185,-2.6972 -1.06934,-0.62976 -2.432075,-1.4866 -2.432076,-2.69719 -10e-7,-1.21059 1.396514,-2.10122 2.432076,-2.6972 1.035562,-0.59598 2.16184,-1.54497 2.16185,-2.69719 0,-1.15222 -2.16185,-2.6972 -2.16185,-2.6972 l -1.785039,-1.15155"
       id="path6"
       sodipodi:nodetypes="czzzzzzzccc" /><path
       style="fill:none;stroke:#ffffff;stroke-width:1;stroke-linecap:butt;stroke-linejoin:miter;stroke-dasharray:none;stroke-opacity:1"
       d="m 96.780474,130.45385 1.11994,-0.84851 c 0,0 2.432076,-1.48661 2.432076,-2.6972 0,-1.21059 -1.430293,-2.13499 -2.432076,-2.69719 -1.001783,-0.5622 -2.161855,-1.54498 -2.161855,-2.6972 0,-1.15222 1.092515,-2.06744 2.161855,-2.6972 1.06934,-0.62976 2.432076,-1.4866 2.432076,-2.69719 0,-1.21059 -1.396514,-2.10122 -2.432076,-2.6972 -1.035562,-0.59598 -2.161845,-1.54497 -2.161855,-2.69719 0,-1.15222 2.161855,-2.6972 2.161855,-2.6972 l 1.785039,-1.15155"
       id="path5"
       sodipodi:nodetypes="czzzzzzzccc" /><circle
       style="fill:#f57e73;fill-opacity:1;stroke:#000000;stroke-width:1;stroke-linecap:round;stroke-linejoin:round;stroke-dasharray:none;paint-order:markers fill stroke"
       id="path1"
       cx="63.854553"
       cy="101.10627"
       r="6.9488778" /><circle
       style="fill:#95f474;fill-opacity:1;stroke:#000000;stroke-width:1;stroke-linecap:round;stroke-linejoin:round;stroke-dasharray:none;paint-order:markers fill stroke"
       id="circle1"
       cx="98.035522"
       cy="101.04044"
       r="6.9488778" /><circle
       style="fill:#74b4f4;fill-opacity:1;stroke:#000000;stroke-width:1;stroke-linecap:round;stroke-linejoin:round;stroke-dasharray:none;paint-order:markers fill stroke"
       id="circle2"
       cx="63.854553"
       cy="136.34825"
       r="6.9488778" /><circle
       style="fill:#f991ec;fill-opacity:1;stroke:#000000;stroke-width:1;stroke-linecap:round;stroke-linejoin:round;stroke-dasharray:none;paint-order:markers fill stroke"
       id="circle3"
       cx="98.035522"
       cy="136.34825"
       r="6.9488778" /><path
       style="fill:none;stroke:#ffffff;stroke-width:1;stroke-linecap:butt;stroke-linejoin:miter;stroke-dasharray:1, 2;stroke-dashoffset:2.3;stroke-opacity:1"
       d="M 70.742542,101.04044 H 90.727127"
       id="path3" /><path
       style="fill:none;stroke:#ffffff;stroke-width:1;stroke-linecap:butt;stroke-linejoin:miter;stroke-dasharray:1, 2;stroke-dashoffset:2.3;stroke-opacity:1"
       d="M 70.742542,136.34825 H 90.727127"
       id="path4" /><g
       id="g35"
       transform="translate(-33.782133,42.371285)" /></g></svg>
